<svg width="1350" height="234" viewBox="0 0 1350 234" fill="none" xmlns="http://www.w3.org/2000/svg">
  <path d="M0 233.661H104.64L134.778 203.522V138.503L110.735 114.46L134.778 90.4167V30.1389L104.64 0H0V233.661ZM53.505 191.331V135.794H73.4847L81.2734 143.583V183.543L73.4847 191.331H53.505ZM53.505 93.8031V42.3299H73.4847L81.2734 50.1186V86.0144L73.4847 93.8031H53.505Z" fill="white"/>
  <path d="M143.287 233.661H193.744L198.824 186.252H231.672L236.751 233.661H289.918L256.392 0H176.812L143.287 233.661ZM215.417 34.2026L226.931 142.567H203.565L215.417 34.2026Z" fill="white"/>
  <path d="M324.11 233.661H377.615V49.1027H416.897V0H284.827V49.1027H324.11V233.661Z" fill="white"/>
  <path d="M463.005 233.661H516.51V49.1027H555.792V0H423.722V49.1027H463.005V233.661Z" fill="white"/>
  <path d="M569.47 233.661H671.4V186.252H622.975V0H569.47V233.661Z" fill="white"/>
  <path d="M688.192 233.661H800.62V186.252H741.697V137.826H793.847V90.4167H741.697V47.4095H799.943V0H688.192V233.661Z" fill="white"/>
  <path d="M846.879 233.661H920.363L950.502 203.522V117.169L925.443 92.1099H877.356L871.261 86.0144V51.8118L879.049 44.0231H888.87L896.659 51.8118V74.8393H950.164V30.1389L920.025 0H847.895L817.756 30.1389V115.476L842.815 140.535H890.902L896.997 146.631V181.849L889.209 189.638H878.034L870.245 181.849V158.822H816.74V203.522L846.879 233.661Z" fill="white"/>
  <path d="M970.281 233.661H1023.79V147.308H1053.59V233.661H1107.09V0H1053.59V93.4645H1023.79V0H970.281V233.661Z" fill="white"/>
  <path d="M1187.56 233.661V0H1134.06V233.661H1187.56Z" fill="white"/>
  <path d="M1214.67 233.661H1268.17V153.404H1318.97L1349.11 123.265V30.1389L1318.97 0H1214.67V233.661ZM1268.17 112.767V40.6367H1287.82L1295.6 48.4254V104.978L1287.82 112.767H1268.17Z" fill="white"/>
</svg>